<?xml version="1.0" encoding="utf-8"?>
<!-- Generator: Adobe Illustrator 19.0.0, SVG Export Plug-In . SVG Version: 6.00 Build 0)  -->
<svg version="1.1" id="Layer_1" xmlns="http://www.w3.org/2000/svg" xmlns:xlink="http://www.w3.org/1999/xlink" x="0px" y="0px"
	 viewBox="0 0 100 100" style="enable-background:new 0 0 100 100;" xml:space="preserve">
<style type="text/css">
	.st0{fill:#501814;}
	.st1{fill:#F05D23;}
	.st2{fill:#F9CF39;}
	.st3{fill:#F05D22;}
	.st4{fill:#FDFDFD;}
</style>
<g id="XMLID_108_">
	<path id="XMLID_323_" class="st0" d="M3.2,39.9c0-0.6,0-1.2,0-1.8c0.1,0,0.1-0.1,0.1-0.2c0.5-3,2-5.3,4.6-6.9
		c0.5-0.3,1.1-0.7,1.6-1.1c1.6-1.2,3.3-1.7,5.3-1.5c1.2,0.1,2.4,0.2,3.7,0.4c0.3,0.1,0.6,0.1,0.9,0.2c1.1,0.2,2.1,0.4,3.2,0.7
		c0.6,0.1,1.2,0.3,1.7,0.4c0.6,0.1,1.2,0.3,1.9,0.4c3.4,0.8,6.9,1.4,10.4,1.4c0.2,0,0.3,0.1,0.4,0.2c0.2,0.4,0.5,0.8,0.6,1.2
		c0.1,0,0.1,0,0.1-0.1c1.2-0.9,2.4-1.9,3.7-2.8c1-0.6,1.9-1.3,2.9-1.9c0.5-0.3,0.9-0.6,1.4-0.8c2.1-1,4.3-1.9,6.7-2.1
		c0.9-0.1,1.8-0.2,2.7-0.3c1.5,0,2.9,0.2,4.3,0.4c0.2,0,0.2,0.1,0.1,0.3c0,0.1-0.1,0.2-0.1,0.3c-1.5,4.1-3,8.2-4.6,12.3
		c-0.1,0.3-0.1,0.4,0.2,0.5c1.4,0.5,2.4,1.4,3.1,2.8c0.3,0.7,0.6,1.4,0.8,2.2c0,0.1,0,0.3,0.2,0.3c0.2,0,0.2-0.1,0.3-0.2
		c0.5-0.7,1.1-1.3,1.8-1.9c0.9-0.7,1.8-1.2,2.7-1.9c1.1-0.8,2.4-1.4,3.7-1.7c1.1-0.2,2.2-0.3,3.2,0c1.3,0.4,1.8,1.5,1.5,2.6
		c-0.1,0.2-0.1,0.3,0.2,0.3c0.6,0.1,1.1,0.3,1.5,0.7c0.1,0.1,0.2,0.1,0.3,0c0.4-0.3,0.8-0.6,1.3-0.8c1-0.6,1.9-1.4,3.1-1.8
		c0.5-0.1,1.1-0.3,1.7-0.2c0.4,0.1,0.8,0.3,1.1,0.7c0.2,0.4,0.4,0.8,0.4,1.2c0.1,0.3,0.2,0.3,0.4,0.2c0.7-0.5,1.4-1,2.3-1.3
		c0.9-0.2,1.7-0.3,2.5,0c1.7,0.6,2.7,1.9,3.2,3.6c0.4,1.4,0.5,2.8,0.6,4.3c0.1,0.9,0.1,1.8,0.4,2.7c0.3,0.8,0.4,0.9,1.2,0.6
		c0.4-0.2,0.8-0.4,1.1-0.5c0.5-0.2,1-0.3,1.5-0.2c0.7,0.2,1.1,0.7,1.3,1.4c0,0.2,0,0.4,0,0.6c0,0,0,0-0.1,0
		c-0.4,1.6-1.4,2.6-2.7,3.4c-0.6,0.4-1.3,0.8-1.9,1.3c-1.3,0.9-2.6,1.4-4.2,1.2c-0.9-0.1-1.7-0.4-2.5-0.8c-1.3-0.8-2.2-2.1-2.7-3.5
		C82,54,82,53.9,81.9,53.7c-0.1,0.1-0.2,0.3-0.3,0.4c-0.6,0.4-1.3,0.8-1.8,1.3c-0.2,0.1-0.5,0.2-0.6,0.4c-0.3,0.3-0.6,0.5-1,0.6
		c-0.6,0.2-1.1,0.2-1.7,0.2c-0.3,0-0.3,0.1-0.2,0.3c0.2,0.8,0.1,1.5-0.6,1.9c-0.5,0.4-1.1,0.7-1.6,1.1c-0.1,0.1-0.4,0.1-0.5,0.2
		c-0.7,0.8-1.6,0.9-2.5,0.8c-3.6-0.5-7.2-0.9-10.8-1c-0.3,0-0.4,0.1-0.5,0.3c-0.7,1.7-1.7,3.2-3.3,4.2c0,0,0,0,0,0.1
		c0.1,0,0.2,0,0.3,0c2-0.2,3.9-0.5,5.8-1c1.1-0.3,2.2-0.6,3.2-1c0.2-0.1,0.3,0,0.5,0.1c1.6,1.7,3.3,3.3,5.2,4.7
		c0.5,0.4,1,0.8,1.5,1.2c-0.4,0.2-0.8,0.3-1.2,0.5c-0.1,0-0.2,0-0.1,0.2c0.1,0.2,0,0.2-0.1,0.2c-0.3,0.1-0.6,0.3-0.9,0.4
		c-0.1,0-0.2,0-0.1,0.2c0.1,0.2,0,0.2-0.1,0.2c-1.7,0.7-3.3,1.4-5,2c-0.2,0.1-0.3,0.1-0.4-0.1c-0.1-0.2-0.3-0.2-0.4-0.1
		c-0.2,0.1-0.4,0.1-0.5,0.1c-0.2,0-0.4,0.1-0.4,0.4c0,0.2-0.1,0.2-0.3,0.3c-1.9,0.5-3.8,1-5.8,1.3c-2.8,0.4-5.6,0.6-8.4,0.4
		c-2.7-0.2-5.4-0.4-8-1.1c-0.5-0.1-1.1-0.3-1.6-0.4C39,73.1,39,73,39,72.7c0.1-0.5,0.2-0.9,0.3-1.4c0.1-0.5,0-0.5-0.4-0.5
		c-0.2,0-0.3,0.1-0.3,0.2c0,0.2-0.1,0.3-0.2,0.5c0,0.2-0.1,0.2-0.3,0.1c-0.6-0.2-0.6-0.2-0.8,0.4c0,0.1,0,0.1-0.1,0.2
		c-0.1,0.2-0.2,0.3-0.4,0.2c-1.5-0.5-3-1.1-4.5-1.7c-0.2-0.1-0.2-0.2-0.2-0.4c0.4-1,0.8-1.9,1.2-2.9c0.5-1.3,1.1-2.6,1.6-3.9
		c0-0.1,0.1-0.2,0-0.3c-0.1-0.1-0.2,0-0.3,0c-0.3,0.1-0.5,0.2-0.8,0.3c-0.9,0.3-1.7,0.7-2.6,0.9c-1.5,0.3-2.9-0.2-4.1-1.1
		c-1.3-1-1-2.6,0.6-3.3c0.2-0.1,0.4-0.2,0.5-0.5c-2.8,0.5-4.1-0.9-4.7-3.4c-0.1,0.1-0.1,0.1-0.2,0.2c-0.8,1.1-1.8,2-3,2.8
		c-0.6,0.4-1.3,0.8-1.9,1.3c-0.5,0.3-1,0.5-1.4,0.8c-1.2,0.5-2.5,0.7-3.7,0.7c-0.4,0-0.9-0.1-1.3-0.2c-2.6-0.4-4.5-2.3-4.8-4.9
		c-0.2-1.6,0.3-3,1.7-3.9c0.8-0.5,1.6-1,2.4-1.6c0.7-0.4,1.5-0.5,2.3-0.6c0.3,0,0.4,0.1,0.6,0.3c0.3,0.4,0.6,0.7,0.9,1.1
		c0.1,0.1,0.1,0.2,0.3,0.2c0.4-1.4,1.9-8.1,1.9-8.5c-0.6,0.2-1.1,0.4-1.7,0.6c-1.3,0.4-2.6,0.7-3.9,0.9c-1.1,0.1-2.2,0.2-3.4,0.1
		c-2.6-0.2-4.6-1.9-5.1-4.5C3.3,40.5,3.3,40.2,3.2,39.9z M76.7,52.4c0,0.4,0.2,0.7,0.5,0.8c0.9,0.3,1.8,0.3,2.7,0.1
		c0.4-0.1,0.7-0.4,0.7-0.8c0.1-0.5,0.1-1,0.1-1.6c0.2-2,0.9-3.8,2.2-5.4c0.2-0.2,0.4-0.4,0.6-0.6c0.5-0.4,0.9-0.3,1.2,0.3
		c0.1,0.2,0.2,0.4,0.2,0.6c0.2,0.9,0.2,1.9,0.3,2.9c0.2,1.5,0.5,3,1.2,4.3c0.9,1.7,2.4,2.4,4.2,2.3c1.7-0.1,2.9-1.1,3.7-2.5
		c0.1-0.2,0.3-0.5,0.1-0.6c-0.2-0.2-0.4,0-0.6,0.1c-0.6,0.3-1.2,0.6-1.9,0.8c-0.9,0.2-1.7-0.2-2.1-1c-0.3-0.7-0.5-1.4-0.6-2.1
		c-0.2-1.5-0.3-2.9-0.4-4.4c-0.1-1-0.4-2-1-2.8c-0.8-1.1-2-1.4-3.3-0.9c-0.5,0.2-1,0.5-1.3,0.9c-1.1,1.1-1.8,2.3-2.5,3.6
		c-0.1,0.1-0.1,0.2-0.2,0.3c0-0.8,0-1.7,0-2.5c0-1,0-1.9-0.3-2.8c-0.1-0.3-0.2-0.4-0.5-0.3c-0.8,0.2-1.5,0.5-2.2,1.1
		c-0.3,0.2-0.4,0.5-0.4,0.8c-0.1,0.4-0.1,0.9-0.1,1.3c-0.1,1.9-0.2,3.8-0.1,5.7c0,0.1,0,0.2,0,0.3c-0.3,0.5-1.2,0.9-1.7,0.8
		c-0.8-0.2-1.2-0.8-1.3-1.5c-0.3-1.3-0.3-2.7-0.3-4c0-0.5,0-0.9-0.1-1.4c-0.2-0.7-0.7-1.1-1.4-0.9c-0.3,0-0.6,0.1-0.9,0.2
		c-0.7,0.1-0.7,0.2-0.9,0.8c-0.2,0.8-0.2,1.6-0.1,2.4c0,0.4,0,0.8-0.1,1.2c-0.4,1.1-1,2-1.9,2.8c-0.2,0.1-0.3,0.3-0.5,0.3
		c-0.5,0.2-0.8,0.1-1.1-0.4C66.1,50.1,66,50,66,49.8c-0.4-1.7-0.3-3.3,0.2-5c0.3-1.2,1-2.1,2.1-2.6c0.6-0.3,1.1-0.6,1.7-0.9
		c0.2-0.1,0.4-0.3,0.5-0.5c0.2-0.3,0.1-0.5-0.2-0.6c-0.3-0.1-0.6-0.1-0.9-0.1c-3,0-6.2,1.8-7.2,5.1c-0.1,0.2-0.1,0.3-0.3,0.3
		c-1.1,0.1-2.2,0.4-3.3,0.7c-0.7,0.2-0.7,0.2-0.9-0.5c-0.3-1.1-0.6-2.3-1.1-3.3c-0.7-1.3-2.4-2.2-3.8-2c-0.7,0.1-0.9,0.3-0.7,1
		c0,0.2,0.1,0.4,0.2,0.6c0.4,1,0.8,1.9,1.3,2.9c0.4,1,0.9,2,1.1,3.1c0,0.2,0.1,0.4-0.1,0.5C52,50,50.6,52.3,49.9,55
		c-0.2,0.6-0.2,0.6-0.8,0.7c-3.9,0.4-7.8,1.1-11.7,2.1c-2.2,0.6-4.4,1.3-6.5,2.1c-0.4,0.2-0.5,0.4-0.1,0.7c0.4,0.3,0.9,0.5,1.4,0.7
		c0.5,0.2,1.1,0.1,1.6-0.1c4.9-1.9,9.9-3,15-3.7c0.5-0.1,0.5-0.1,0.5,0.4c0,0.1,0,0.2,0,0.3c-0.1,1.1-0.2,2.1,0,3.2
		c0.3,1.3,1.2,2.2,2.5,2.4c2.3,0.3,4.5-0.7,5.7-2.8c0.7-1.2,1.1-2.5,1.4-3.9c0.1-0.2,0.1-0.3,0.4-0.3c2,0,4,0,6.1,0.2
		c2.2,0.1,4.5,0.4,6.7,0.7c0.7,0.1,1.3,0.3,2,0.2c0.2,0,0.4,0,0.5-0.2c0.1-0.2,0-0.4-0.2-0.5c-0.4-0.5-0.9-0.7-1.5-0.8
		c-2.6-0.4-5.2-0.7-7.8-0.9c-1.9-0.1-3.8-0.2-5.7-0.2c-0.2,0-0.3-0.1-0.3-0.3c0-0.7,0-1.4-0.1-2.1c-0.2-1.2-0.3-2.4-0.5-3.5
		c-0.1-0.8,0-1,0.7-1.3c0.8-0.3,1.6-0.5,2.3-0.8c0,0.2,0,0.3,0,0.5c0,1.7,0.4,3.3,1.5,4.6c1.3,1.5,3.1,1.7,4.8,0.8
		c0.9-0.5,1.5-1.2,2-2.1c0.1,0.1,0.1,0.2,0.2,0.3c0.3,0.8,0.7,1.5,1.3,2c0.8,0.7,1.6,0.9,2.6,0.7C75,53.6,75.9,53.1,76.7,52.4z
		 M22.5,39.3c0,0.1-0.1,0.2-0.1,0.2c-0.3,1-0.6,2-0.8,3c-0.6,2.9-1.2,5.8-2,8.7c-0.3,1-0.5,1.9-1.1,2.8c-0.3,0.5-0.7,0.8-1.3,0.9
		c-0.5,0.1-0.9-0.2-1.4-0.4c-0.8-0.5-1.5-1.2-2.1-1.9c-0.1-0.1-0.1-0.2-0.3-0.2c-0.8,0.1-1.4,0.4-1.7,1.2c-0.3,0.6-0.3,1.2-0.2,1.8
		c0.3,1.6,1.3,2.6,2.8,3c2.7,0.7,5,0,7-1.9c1.3-1.3,2.1-2.9,2.6-4.6c0.7-2.5,1.2-5,1.8-7.5c0.1-0.2,0.1-0.3,0.4-0.2
		c0.8,0.2,1.1,0.8,1.3,1.6c0.2,0.9,0.2,1.8,0.2,2.6c0,1.5-0.1,3,0,4.4c0,0.9,0.1,1.9,0.6,2.7c0.3,0.6,0.8,1,1.5,1
		c0.9,0,1.7-0.6,2.1-1.6c0.3-0.7,0.3-1.5,0.3-2.3c0-1.1,0-2.2,0.3-3.3c0.4-1.8,1.3-3.2,3.3-3.6c0,0,0.1,0,0.1,0
		c0.7-0.3,1.2-0.7,1.5-1.4c0.2-0.4,0-0.7-0.4-0.7c-0.4-0.1-0.9-0.1-1.3,0c-1.2,0.2-2.2,0.8-3.2,1.5c-0.3,0.3-0.7,0.5-1,0.8
		c-0.6-1.2-1.1-2-2.1-2.8c-0.6-0.5-1.3-0.8-2-0.8c-0.3,0-0.7,0.1-1,0.2c0.4-1.8,0.8-3.5,1.3-5.2c0.1-0.4,0.3-0.4,0.6-0.3
		c1.2,0.4,2.4,0.7,3.7,0.6c1.2,0,2.2-0.3,3.2-1.1c0.8-0.6,1.1-1.5,1.1-2.5c0-0.5-0.1-0.5-0.6-0.6c-1.2,0-2.4-0.1-3.6-0.3
		c-2.9-0.4-5.8-1.1-8.7-1.7c-2.6-0.6-5.2-1.3-7.9-1.4c-1.2-0.1-2.4-0.1-3.5,0.5c-2.8,1.3-4.7,4.7-4.4,7.8c0.3,2.5,1.7,3.8,4.2,3.9
		c1.8,0.1,3.6-0.3,5.4-0.7C18.7,40.9,20.6,40.2,22.5,39.3z M48.4,47.1C48.4,47.2,48.4,47.2,48.4,47.1c1,0.1,2,0.2,3,0.2
		c0.3,0,0.4-0.1,0.4-0.4c-0.1-3.9-3.5-6.8-7.3-6.4c-2.6,0.3-4.4,1.7-5.4,4.1c-1,2.4-0.6,4.7,1,6.7c0.2,0.2,0.3,0.2,0.5,0
		c1.4-1.3,2.9-2.7,4.3-4c0.2-0.2,0.4-0.3,0.7-0.2C46.5,47.1,47.4,47.1,48.4,47.1z M51.2,38.3C51.2,38.3,51.2,38.3,51.2,38.3
		c0.5,0,1,0,1.5,0c0.3,0,0.4-0.1,0.5-0.3c1.3-3.5,2.6-7,3.9-10.5c0.1-0.4,0-0.4-0.3-0.4c-2-0.2-3.9,0-5.9,0.5
		c-0.2,0.1-0.4,0.2-0.4,0.4c-0.8,3.3-1.6,6.7-2.4,10c-0.1,0.5-0.1,0.5,0.4,0.5c0,0,0.1,0,0.1,0C49.6,38.4,50.4,38.3,51.2,38.3z
		 M43,35.3C43,35.3,43,35.3,43,35.3C43,36.6,43,37.9,43,39.2c0,0.2,0,0.3,0.3,0.2c0.3-0.1,0.6-0.2,0.9-0.3c0.7-0.3,1.5-0.4,2.3-0.5
		c0.3,0,0.4-0.1,0.5-0.4c0.8-3.4,1.6-6.7,2.4-10.1c0-0.1,0.1-0.2,0-0.3c-0.1-0.1-0.2,0-0.3,0.1c-2.1,0.7-4,1.7-5.8,3
		c-0.2,0.1-0.2,0.3-0.2,0.4C43,32.8,43,34,43,35.3z M41.7,32.2c-0.1,0.1-0.1,0.1-0.2,0.1c-2,1.6-3.7,3.4-5.2,5.5
		c-0.1,0.1-0.1,0.3-0.1,0.4c0.3,1,0.5,2,0.8,3c0.1,0.3,0.2,0.3,0.4,0.2c1.3-0.6,2.6-1.1,3.9-1.5c0.2-0.1,0.3-0.2,0.3-0.4
		c0-1.6,0-3.3,0-4.9C41.7,33.9,41.7,33.1,41.7,32.2z M67.7,68.8c0.1,0,0.1,0,0.2-0.1c0.4-0.2,0.9-0.3,1.3-0.5
		c0.4-0.2,0.4-0.2,0.1-0.4c-1.1-0.9-2.3-1.9-3.3-3c-0.5-0.5-0.9-0.6-1.5-0.4c-0.7,0.2-1.1,0.5-1.2,1.3c-0.2,1.5-0.6,2.9-1,4.3
		c-0.1,0.3,0,0.3,0.3,0.3c0.4-0.1,0.8-0.2,1.2-0.3c0.4-0.1,0.6-0.3,0.6-0.6c0-0.3,0.1-0.4,0.4-0.5c0.6-0.2,1.2-0.3,1.8-0.5
		c0.3-0.1,0.5-0.1,0.7,0.2C67.4,68.6,67.5,68.8,67.7,68.8z M57.9,69.9c0.8-1.4,1.6-2.8,2.2-4.3c-0.1,0-0.2,0-0.3,0
		c-1.4,0.3-2.9,0.4-4.3,0.5c-1,0.1-1,0.1-0.9,1.1c0,0.2,0.1,0.2,0.2,0.2c0.4,0,0.8,0,1.3-0.1c0.4,0,0.8-0.1,1.3-0.1
		c-0.8,1.5-1.6,2.8-2.6,4.1c1.8-0.1,3.5-0.2,5.2-0.5c0.3-0.1,0.7,0,0.9-0.2c0.1-0.2-0.1-0.6-0.1-0.9c0-0.2-0.1-0.3-0.3-0.2
		C59.7,69.6,58.9,69.8,57.9,69.9z M30.5,58.3c0.8-0.3,1.6-0.6,2.4-0.8c1.4-0.5,2.9-0.9,4.3-1.3c0.3-0.1,0.3-0.2,0.1-0.4
		c-0.2-0.2-0.4-0.5-0.7-0.7c-0.2-0.2-0.3-0.3,0-0.5c0.2-0.1,0.2-0.3,0-0.5c-1.4-1.6-2.1-3.4-2.1-5.5c0-0.1,0.1-0.2-0.1-0.2
		c-0.1,0-0.2,0.1-0.3,0.2c-0.1,0.2-0.2,0.4-0.2,0.7c-0.3,1-0.3,2.1-0.3,3.2c0,0.7-0.1,1.5-0.2,2.2c-0.3,1.3-0.9,2.4-2.1,3
		C31,57.8,30.7,58.1,30.5,58.3z M50.5,70.1c0.1-0.1,0.2-0.2,0.2-0.3c0.9-1,1.7-2.1,2.5-3.2c0-0.1,0.1-0.2,0.1-0.2
		c0-0.1-0.2-0.1-0.2-0.1c-1.5,0-2.9-0.1-4.4-0.3c-0.3,0-0.6-0.2-0.8,0c-0.2,0.2-0.1,0.6-0.2,0.8c0,0,0,0,0,0.1c0,0.2,0,0.2,0.2,0.2
		c0.4,0,0.9,0.1,1.3,0.1c0.4,0,0.8,0.1,1.3,0.1c-1,1.3-2.1,2.4-3.2,3.5c0,0.1,0.1,0.1,0.2,0.1c1.7,0.2,3.4,0.4,5,0.4
		c0.9,0,0.9,0,0.9-0.9c0-0.3-0.1-0.3-0.3-0.3C52.2,70.2,51.4,70.1,50.5,70.1z M41,67.6c0.9,0,1.5-0.4,1.7-1.1c0.2-0.7,0-1.4-0.7-1.9
		c-0.2-0.2-0.5-0.3-0.8-0.4c-0.8-0.3-1.6-0.5-2.3-0.9c-0.2-0.1-0.3-0.1-0.3,0.1c-0.6,1.4-1.2,2.9-1.8,4.3c-0.1,0.2-0.1,0.2,0.1,0.3
		c0.5,0.2,1,0.4,1.5,0.6c0.2,0.1,0.3,0,0.3-0.2c0.1-0.3,0.2-0.6,0.3-0.9c0.2-0.6,0.2-0.6,0.8-0.4C40.2,67.5,40.6,67.6,41,67.6z
		 M45.7,48.7c-1.5,1.5-3,3-4.5,4.4c-0.1,0.1-0.1,0.2,0,0.3c1.2,1.1,2.6,1.7,4.2,1.8c0.2,0,0.3,0,0.3-0.3c0-1.8,0-3.6,0-5.3
		C45.7,49.3,45.7,49,45.7,48.7z M46.3,65.7c0-0.1-0.1-0.1-0.2-0.1c-0.4-0.1-0.9-0.2-1.3-0.3c-0.2,0-0.3,0-0.3,0.2
		c-0.4,1.5-0.7,3-1.1,4.5c0,0.2,0,0.3,0.2,0.3c0.5,0.1,1.1,0.2,1.6,0.3c0.2,0,0.3,0,0.3-0.2c0.2-0.9,0.3-1.8,0.5-2.6
		C46,67.1,46.1,66.4,46.3,65.7z M39.5,62c0.2,0.1,0.4,0.2,0.5,0.2c1,0.4,2.1,0.6,3,1.3c0,0,0.1,0.1,0.1,0c0.1-0.3,0.3-0.1,0.4-0.1
		c0.5,0.1,1.1,0.2,1.6,0.4c0.2,0.1,0.3,0,0.2-0.2c-0.2-0.8-0.3-1.6-0.3-2.4c0-0.2-0.1-0.3-0.3-0.2c-0.4,0.1-0.8,0.1-1.3,0.2
		C42.3,61.3,40.9,61.6,39.5,62z M28.2,40.6c0.4,0.2,0.8,0.3,1.2,0.5c0.8,0.5,1.5,1.2,2.1,2c0.1,0.2,0.2,0.2,0.4,0.1
		c0.2-0.2,0.5-0.3,0.8-0.5c0.1-0.1,0.2-0.2,0.1-0.3c-0.2-0.7-0.4-1.5-0.6-2.2C32.2,40,32.2,40,32,40.1c-0.3,0.1-0.7,0.2-1,0.3
		C30.1,40.6,29.2,40.6,28.2,40.6z M48.9,50.5c-0.5,0-0.9,0-1.4-0.1c-0.1,0-0.2,0-0.2,0.1c0,0.7,0,1.3,0,2
		C47.8,51.9,48.3,51.2,48.9,50.5z M28.5,59.5C28.5,59.5,28.5,59.5,28.5,59.5C28.5,59.5,28.5,59.5,28.5,59.5
		C28.5,59.5,28.5,59.5,28.5,59.5C28.5,59.5,28.5,59.5,28.5,59.5z"/>
	<path id="XMLID_318_" class="st1" d="M84.8,57.7c-0.5,2.7-1.4,5.2-2.5,7.7C77.9,74.6,71,81,61.5,84.7c-3.2,1.2-6.5,1.9-9.8,2.2
		c-0.4,0-0.8,0-1.1,0.1c-1.3,0-2.6,0-4,0c-0.4-0.1-0.7-0.1-1.1-0.1c-14.7-1.2-27.3-11.2-32-25.1c1.3,0,2.5-0.2,3.7-0.7
		c1.5,4.3,3.8,8.1,6.9,11.4c5.4,5.8,12,9.3,19.8,10.4c4,0.6,8,0.4,12-0.5c11.5-2.6,20.7-11,24.3-22.1c0.7-2,1.1-4.1,1.4-6.2
		c0.1-0.1,0.2-0.3,0.3-0.4c0.1,0.1,0.2,0.3,0.2,0.4C82.6,55.6,83.5,56.8,84.8,57.7z"/>
	<path id="XMLID_317_" class="st1" d="M18.3,28.7c2.6-3.8,5.9-6.9,9.7-9.5c4.3-2.9,8.9-4.7,14-5.7c1.5-0.3,3-0.4,4.5-0.5
		c0.1,0,0.2,0,0.3-0.1c0.8,0,1.6,0,2.3,0c0.5,0.1,1,0.1,1.5,0.1c4.2,0.2,8.3,1.1,12.1,2.7C73.6,20.5,80.8,28.6,84.2,40
		c0,0.1,0,0.1,0.1,0.2c-0.8,0.3-1.5,0.8-2.3,1.3c-0.2,0.2-0.3,0.2-0.4-0.2c-0.1-0.4-0.2-0.8-0.4-1.2c-0.3-0.4-0.7-0.6-1.1-0.7
		C74.8,23.7,58.7,14.1,42,17.4c-6.2,1.2-11.7,4.1-16.3,8.5c-1.2,1.1-2.3,2.3-3.3,3.7c-1.1-0.2-2.1-0.4-3.2-0.7
		C18.9,28.8,18.6,28.8,18.3,28.7z"/>
	<path id="XMLID_316_" class="st2" d="M50.6,13.1c-0.5,0-1,0-1.5-0.1C49.6,13,50.1,13,50.6,13.1C50.6,13,50.6,13,50.6,13.1z"/>
	<path id="XMLID_315_" class="st3" d="M78.4,39.5c-1.1,0.4-2.1,1.2-3.1,1.8c-0.4,0.3-0.8,0.6-1.3,0.8c-0.1,0.1-0.2,0-0.3,0
		c-0.4-0.4-0.9-0.6-1.5-0.7c-0.2,0-0.2-0.1-0.2-0.3c0.4-1-0.1-2.2-1.5-2.6c-1.1-0.3-2.2-0.2-3.2,0c-1.4,0.3-2.6,0.8-3.7,1.7
		c-0.9,0.6-1.9,1.2-2.7,1.9c-0.7,0.5-1.3,1.2-1.8,1.9c-0.1,0.1-0.1,0.3-0.3,0.2c-0.1,0-0.1-0.2-0.2-0.3c-0.2-0.8-0.5-1.5-0.8-2.2
		c-0.6-1.4-1.6-2.3-3.1-2.8c-0.3-0.1-0.3-0.2-0.2-0.5c1.5-4.1,3.1-8.2,4.6-12.3c0-0.1,0.1-0.2,0.1-0.3c0.1-0.2,0-0.2-0.1-0.3
		c-1.4-0.2-2.9-0.5-4.3-0.4c-0.9,0-1.8,0.2-2.7,0.3c-2.4,0.3-4.6,1.1-6.7,2.1c-0.5,0.2-1,0.5-1.4,0.8c-1,0.6-2,1.3-2.9,1.9
		c-1.3,0.8-2.5,1.8-3.7,2.8c0,0-0.1,0-0.1,0.1c-0.2-0.4-0.4-0.8-0.6-1.2c-0.1-0.2-0.2-0.2-0.4-0.2c-3.5,0-7-0.6-10.4-1.4
		c-0.6-0.1-1.2-0.3-1.9-0.4c0.9-1.2,2-2.3,3.1-3.3c8.2-7.3,17.7-9.8,28.5-7.5c7.7,1.7,13.9,5.9,18.6,12.3C76,34,77.4,36.7,78.4,39.5
		z"/>
	<path id="XMLID_314_" class="st3" d="M18.7,60.3c0.6-0.5,1.2-0.9,1.9-1.3c1.2-0.7,2.2-1.6,3-2.8c0,0,0.1-0.1,0.2-0.2
		c0.6,2.5,1.9,4,4.7,3.4c-0.1,0.3-0.3,0.4-0.5,0.5c-1.5,0.7-1.8,2.3-0.6,3.3c1.2,1,2.6,1.5,4.1,1.1c0.9-0.2,1.7-0.6,2.6-0.9
		c0.3-0.1,0.5-0.2,0.8-0.3c0.1,0,0.2-0.1,0.3,0c0.1,0.1,0,0.2,0,0.3c-0.5,1.3-1.1,2.6-1.6,3.9c-0.4,1-0.8,1.9-1.2,2.9
		c-0.1,0.2-0.1,0.3,0.2,0.4c1.5,0.6,3,1.2,4.5,1.7c0.2,0.1,0.3,0,0.4-0.2c0-0.1,0-0.1,0.1-0.2c0.2-0.6,0.2-0.6,0.8-0.4
		c0.2,0,0.2,0,0.3-0.1c0-0.2,0.1-0.3,0.2-0.5c0-0.2,0.1-0.2,0.3-0.2c0.5,0,0.5,0,0.4,0.5c-0.1,0.5-0.2,0.9-0.3,1.4
		c-0.1,0.2,0,0.4,0.3,0.4c0.5,0.1,1.1,0.2,1.6,0.4c2.6,0.7,5.3,0.9,8,1.1c2.8,0.2,5.6-0.1,8.4-0.4c2-0.3,3.9-0.8,5.8-1.3
		c0.2,0,0.3-0.1,0.3-0.3c0-0.2,0.1-0.3,0.4-0.4c0.2,0,0.4-0.1,0.5-0.1c0.2-0.1,0.3-0.1,0.4,0.1c0.1,0.1,0.2,0.1,0.4,0.1
		c1.7-0.6,3.3-1.3,5-2c0.1,0,0.3,0,0.1-0.2c-0.1-0.1,0.1-0.1,0.1-0.2c0.3-0.1,0.6-0.3,0.9-0.4c0.1,0,0.3,0,0.1-0.2
		c-0.1-0.1,0.1-0.1,0.1-0.2c0.4-0.2,0.8-0.3,1.2-0.5c-0.5-0.4-1-0.8-1.5-1.2c-1.8-1.4-3.6-3-5.2-4.7c-0.1-0.1-0.3-0.2-0.5-0.1
		c-1.1,0.4-2.1,0.7-3.2,1c-1.9,0.5-3.8,0.8-5.8,1c-0.1,0-0.2,0-0.3,0c0,0,0-0.1,0-0.1c1.6-1,2.6-2.4,3.3-4.2
		c0.1-0.3,0.3-0.3,0.5-0.3c3.6,0.1,7.2,0.5,10.8,1c0.9,0.1,1.9,0.1,2.5-0.8c0.1-0.1,0.3-0.1,0.5-0.2c0.5-0.4,1.1-0.7,1.6-1.1
		c0.6-0.5,0.8-1.2,0.6-1.9c-0.1-0.3,0-0.3,0.2-0.3c0.6,0,1.2,0,1.7-0.2c0.4-0.1,0.7-0.3,1-0.6c0.2-0.2,0.4-0.3,0.6-0.4
		c-0.1,0.3-0.1,0.7-0.2,1c-1.2,5.8-3.8,10.9-7.9,15.3c-7.7,8.2-19.2,11.8-30.2,9.2C30.8,78.4,22.2,70.6,18.7,60.3z"/>
	<path id="XMLID_310_" class="st4" d="M76.7,52.4c-0.8,0.8-1.7,1.3-2.7,1.5c-1,0.2-1.9,0-2.6-0.7c-0.6-0.6-1-1.3-1.3-2
		c0-0.1,0-0.2-0.2-0.3c-0.4,0.9-1.1,1.6-2,2.1c-1.7,1-3.5,0.7-4.8-0.8c-1.1-1.3-1.5-2.9-1.5-4.6c0-0.1,0-0.3,0-0.5
		c-0.8,0.3-1.6,0.5-2.3,0.8c-0.7,0.3-0.8,0.6-0.7,1.3c0.2,1.2,0.3,2.4,0.5,3.5c0.1,0.7,0.1,1.4,0.1,2.1c0,0.2,0,0.3,0.3,0.3
		c1.9,0,3.8,0.1,5.7,0.2c2.6,0.2,5.2,0.5,7.8,0.9c0.6,0.1,1.1,0.4,1.5,0.8c0.1,0.1,0.3,0.3,0.2,0.5c-0.1,0.2-0.3,0.2-0.5,0.2
		c-0.7,0-1.4-0.1-2-0.2c-2.2-0.3-4.5-0.5-6.7-0.7c-2-0.1-4-0.2-6.1-0.2c-0.3,0-0.3,0.1-0.4,0.3c-0.3,1.4-0.8,2.6-1.4,3.9
		c-1.2,2.1-3.3,3.2-5.7,2.8c-1.2-0.2-2.1-1.1-2.5-2.4c-0.3-1.1-0.2-2.1,0-3.2c0-0.1,0-0.2,0-0.3c0.1-0.5,0.1-0.5-0.5-0.4
		c-5.1,0.7-10.2,1.9-15,3.7c-0.5,0.2-1.1,0.2-1.6,0.1c-0.5-0.2-1-0.3-1.4-0.7c-0.4-0.3-0.3-0.5,0.1-0.7c2.1-0.8,4.3-1.5,6.5-2.1
		c3.8-1,7.7-1.7,11.7-2.1c0.6-0.1,0.6-0.1,0.8-0.7c0.7-2.7,2.1-5,4.4-6.6c0.2-0.2,0.2-0.3,0.1-0.5c-0.2-1.1-0.6-2.1-1.1-3.1
		c-0.4-1-0.8-1.9-1.3-2.9c-0.1-0.2-0.1-0.4-0.2-0.6c-0.2-0.7,0-1,0.7-1c1.4-0.1,3.1,0.8,3.8,2c0.5,1,0.8,2.2,1.1,3.3
		c0.2,0.7,0.2,0.7,0.9,0.5c1.1-0.3,2.2-0.6,3.3-0.7c0.2,0,0.2-0.1,0.3-0.3c1-3.3,4.3-5.1,7.2-5.1c0.3,0,0.6,0,0.9,0.1
		c0.4,0.1,0.4,0.3,0.2,0.6c-0.1,0.2-0.3,0.4-0.5,0.5c-0.6,0.3-1.1,0.6-1.7,0.9c-1.1,0.5-1.8,1.5-2.1,2.6c-0.5,1.6-0.6,3.3-0.2,5
		c0,0.2,0.1,0.3,0.2,0.5c0.2,0.5,0.5,0.6,1.1,0.4c0.2-0.1,0.4-0.2,0.5-0.3c0.9-0.8,1.5-1.7,1.9-2.8c0.1-0.4,0.1-0.8,0.1-1.2
		c-0.1-0.8-0.1-1.6,0.1-2.4c0.1-0.7,0.2-0.7,0.9-0.8c0.3,0,0.6-0.1,0.9-0.2c0.7-0.1,1.2,0.2,1.4,0.9c0.1,0.5,0.1,0.9,0.1,1.4
		c0,1.4-0.1,2.7,0.3,4c0.2,0.7,0.5,1.3,1.3,1.5c0.6,0.1,1.5-0.3,1.7-0.8c0-0.1,0-0.2,0-0.3c0-1.9,0-3.8,0.1-5.7
		c0-0.4,0.1-0.9,0.1-1.3c0-0.3,0.2-0.6,0.4-0.8c0.6-0.5,1.4-0.9,2.2-1.1c0.3-0.1,0.4,0.1,0.5,0.3c0.3,0.9,0.3,1.9,0.3,2.8
		c0,0.8,0,1.6,0,2.5c0.2-0.1,0.2-0.2,0.2-0.3c0.7-1.3,1.5-2.6,2.5-3.6c0.4-0.4,0.8-0.7,1.3-0.9c1.3-0.5,2.4-0.2,3.3,0.9
		c0.7,0.8,0.9,1.8,1,2.8c0.2,1.5,0.3,2.9,0.4,4.4c0.1,0.7,0.3,1.4,0.6,2.1c0.4,0.8,1.3,1.2,2.1,1c0.7-0.1,1.3-0.5,1.9-0.8
		c0.2-0.1,0.4-0.3,0.6-0.1c0.2,0.2,0,0.5-0.1,0.6c-0.8,1.5-2,2.4-3.7,2.5c-1.8,0.1-3.3-0.6-4.2-2.3c-0.7-1.3-1-2.8-1.2-4.3
		c-0.1-0.9-0.1-1.9-0.3-2.9c0-0.2-0.1-0.4-0.2-0.6c-0.3-0.6-0.6-0.7-1.2-0.3c-0.2,0.2-0.4,0.4-0.6,0.6c-1.3,1.5-2,3.3-2.2,5.4
		c0,0.5-0.1,1-0.1,1.6c0,0.5-0.3,0.7-0.7,0.8c-0.9,0.2-1.8,0.2-2.7-0.1C76.9,53,76.7,52.8,76.7,52.4z M52,55.3
		c1.2-0.1,2.3-0.1,3.4-0.2c0.2,0,0.2-0.1,0.2-0.2c0-0.4,0-0.9,0-1.3c-0.1-0.8-0.1-1.6-0.4-2.3c-0.1-0.3-0.2-0.3-0.5-0.1
		C53.3,52.3,52.6,53.7,52,55.3z M55.3,56.8c-1.2,0-2.4,0.2-3.6,0.3c-0.1,0-0.2,0-0.2,0.2c-0.1,0.7-0.2,1.4,0.1,2
		c0.2,0.5,0.5,0.7,1,0.7c0.6,0,1-0.2,1.4-0.6C54.7,58.7,55.1,57.8,55.3,56.8z"/>
	<path id="XMLID_307_" class="st4" d="M22.5,39.3c-1.9,0.9-3.7,1.6-5.7,2.1c-1.8,0.4-3.5,0.8-5.4,0.7c-2.5-0.1-3.9-1.5-4.2-3.9
		c-0.4-3.1,1.5-6.5,4.4-7.8c1.1-0.5,2.3-0.5,3.5-0.5c2.7,0.2,5.3,0.8,7.9,1.4c2.9,0.7,5.8,1.3,8.7,1.7c1.2,0.2,2.4,0.2,3.6,0.3
		c0.5,0,0.5,0.1,0.6,0.6c0.1,1-0.3,1.8-1.1,2.5c-0.9,0.8-2,1-3.2,1.1c-1.3,0-2.5-0.2-3.7-0.6c-0.3-0.1-0.5-0.1-0.6,0.3
		c-0.5,1.7-0.9,3.5-1.3,5.2c0.4-0.1,0.7-0.1,1-0.2c0.8,0,1.5,0.2,2,0.8c1,0.8,1.5,1.6,2.1,2.8c0.3-0.3,0.6-0.6,1-0.8
		c0.9-0.7,2-1.3,3.2-1.5c0.4-0.1,0.9-0.1,1.3,0c0.4,0.1,0.6,0.3,0.4,0.7c-0.3,0.7-0.8,1.1-1.5,1.4c0,0-0.1,0-0.1,0
		c-2,0.4-2.9,1.8-3.3,3.6C32,50.3,32,51.4,32,52.6c0,0.8-0.1,1.5-0.3,2.3c-0.4,1.1-1.1,1.6-2.1,1.6c-0.7,0-1.2-0.4-1.5-1
		c-0.4-0.9-0.5-1.8-0.6-2.7c-0.1-1.5,0-3,0-4.4c0-0.9,0-1.8-0.2-2.6c-0.2-0.7-0.5-1.4-1.3-1.6c-0.2-0.1-0.3,0-0.4,0.2
		c-0.6,2.5-1,5-1.8,7.5c-0.5,1.7-1.3,3.4-2.6,4.6c-2,1.9-4.3,2.6-7,1.9c-1.5-0.4-2.5-1.4-2.8-3c-0.1-0.6-0.1-1.2,0.2-1.8
		c0.3-0.7,1-1.1,1.7-1.2c0.2,0,0.2,0.1,0.3,0.2c0.6,0.7,1.3,1.4,2.1,1.9c0.4,0.3,0.9,0.5,1.4,0.4c0.6-0.1,1-0.4,1.3-0.9
		c0.6-0.9,0.8-1.8,1.1-2.8c0.8-2.9,1.3-5.8,2-8.7c0.2-1,0.5-2,0.8-3C22.4,39.5,22.4,39.4,22.5,39.3z M24.5,36
		c-2.2-0.7-4.4-1.4-6.6-2c-1.5-0.4-3-0.8-4.6-0.9c-1.1,0-1.9,0.3-2.5,1.3C10,36,10.8,38,12.5,38.6c0.4,0.1,0.8,0.2,1.2,0.2
		c1.4,0.1,2.9-0.1,4.3-0.3c0.9-0.1,1.8-0.3,2.7-0.4c0.6-0.1,1.2,0.1,1.6,0.7c0.1,0.1,0.1,0.3,0.3,0.3C22.9,38,23.5,36.9,24.5,36z"/>
	<path id="XMLID_306_" class="st4" d="M18.7,60.3c3.5,10.3,12.2,18,22.8,20.5c10.9,2.5,22.5-1,30.2-9.2c4.1-4.3,6.7-9.4,7.9-15.3
		c0.1-0.3,0.1-0.6,0.2-1c0.6-0.5,1.2-0.8,1.8-1.3c-0.2,2.1-0.7,4.2-1.4,6.2c-3.6,11.2-12.8,19.5-24.3,22.1c-4,0.9-7.9,1.1-12,0.5
		c-7.8-1.1-14.4-4.6-19.8-10.4c-3.1-3.3-5.4-7.1-6.9-11.4C17.7,60.8,18.2,60.6,18.7,60.3z"/>
	<path id="XMLID_305_" class="st4" d="M78.4,39.5c-1-2.9-2.4-5.5-4.2-8c-4.7-6.4-10.8-10.6-18.6-12.3c-10.7-2.3-20.2,0.2-28.5,7.5
		c-1.1,1-2.1,2.1-3.1,3.3c-0.6-0.1-1.2-0.3-1.7-0.4c1-1.3,2.1-2.5,3.3-3.7c4.6-4.4,10-7.2,16.3-8.5c16.7-3.3,32.8,6.3,38.1,21.9
		C79.5,39.3,79,39.4,78.4,39.5z"/>
	<path id="XMLID_304_" class="st2" d="M48.4,47.1c-1,0-1.9,0-2.9,0c-0.3,0-0.5,0.1-0.7,0.2c-1.4,1.3-2.9,2.7-4.3,4
		c-0.2,0.2-0.3,0.2-0.5,0c-1.6-2.1-2-4.3-1-6.7c1-2.4,2.8-3.8,5.4-4.1c3.8-0.4,7.2,2.6,7.3,6.4c0,0.3,0,0.4-0.4,0.4
		C50.4,47.3,49.4,47.3,48.4,47.1C48.4,47.2,48.4,47.2,48.4,47.1z"/>
	<path id="XMLID_303_" class="st2" d="M51.2,38.3c-0.8,0.1-1.6,0.1-2.5,0.2c0,0-0.1,0-0.1,0c-0.6,0-0.6,0-0.4-0.5
		c0.8-3.3,1.6-6.7,2.4-10c0.1-0.2,0.2-0.4,0.4-0.4c1.9-0.5,3.9-0.7,5.9-0.5c0.3,0,0.4,0.1,0.3,0.4c-1.3,3.5-2.6,7-3.9,10.5
		c-0.1,0.3-0.2,0.3-0.5,0.3C52.2,38.3,51.7,38.3,51.2,38.3C51.2,38.3,51.2,38.3,51.2,38.3z"/>
	<path id="XMLID_302_" class="st2" d="M43,35.3c0-1.3,0-2.5,0-3.8c0-0.2,0-0.3,0.2-0.4c1.8-1.3,3.7-2.4,5.8-3c0.1,0,0.2-0.1,0.3-0.1
		c0.1,0.1,0,0.2,0,0.3c-0.8,3.4-1.6,6.7-2.4,10.1c-0.1,0.3-0.2,0.4-0.5,0.4c-0.8,0-1.5,0.2-2.3,0.5c-0.3,0.1-0.6,0.2-0.9,0.3
		c-0.3,0.1-0.3,0-0.3-0.2C43,37.9,43,36.6,43,35.3C43,35.3,43,35.3,43,35.3z"/>
	<path id="XMLID_301_" class="st2" d="M41.7,32.2c0,0.9,0,1.7,0,2.5c0,1.6,0,3.3,0,4.9c0,0.2-0.1,0.3-0.3,0.4
		c-1.3,0.4-2.7,0.9-3.9,1.5c-0.2,0.1-0.3,0.1-0.4-0.2c-0.2-1-0.5-2-0.8-3c0-0.2,0-0.3,0.1-0.4c1.5-2.1,3.2-3.9,5.2-5.5
		C41.6,32.3,41.6,32.3,41.7,32.2z"/>
	<path id="XMLID_300_" class="st1" d="M11.6,51.3c-0.1-1.9,0-3.8,0.2-5.8c0-0.1,0-0.3,0-0.4c1.3-0.2,2.6-0.5,3.9-0.9
		c-0.1,0.9-0.3,1.7-0.3,2.6c-0.2,1.7-0.2,3.4-0.1,5.1c-0.3-0.3-0.6-0.7-0.9-1.1c-0.1-0.2-0.3-0.3-0.6-0.3
		C13.1,50.8,12.3,50.9,11.6,51.3z"/>
	<path id="XMLID_297_" class="st2" d="M67.7,68.8c-0.2,0-0.3-0.2-0.4-0.3c-0.2-0.3-0.4-0.3-0.7-0.2c-0.6,0.2-1.2,0.4-1.8,0.5
		c-0.3,0.1-0.4,0.2-0.4,0.5c0,0.4-0.2,0.6-0.6,0.6c-0.4,0.1-0.8,0.2-1.2,0.3c-0.3,0.1-0.3,0-0.3-0.3c0.4-1.4,0.8-2.8,1-4.3
		c0.1-0.8,0.4-1.1,1.2-1.3c0.7-0.2,1.1-0.1,1.5,0.4c1,1.1,2.1,2.1,3.3,3c0.3,0.3,0.3,0.3-0.1,0.4c-0.4,0.2-0.9,0.3-1.3,0.5
		C67.8,68.8,67.8,68.8,67.7,68.8z M64.8,65.8c-0.1,0.7-0.2,1.4-0.2,2c0,0.2,0.1,0.1,0.2,0.1c0.4-0.1,0.8-0.3,1.2-0.4
		c0.1,0,0.2-0.1,0.1-0.2C65.7,66.8,65.3,66.4,64.8,65.8z"/>
	<path id="XMLID_296_" class="st2" d="M57.9,69.9c0.9-0.1,1.7-0.2,2.6-0.4c0.2,0,0.3,0,0.3,0.2c0,0.3,0.3,0.7,0.1,0.9
		c-0.2,0.2-0.6,0.2-0.9,0.2c-1.7,0.3-3.4,0.5-5.2,0.5c1-1.3,1.8-2.6,2.6-4.1c-0.5,0-0.9,0.1-1.3,0.1c-0.4,0-0.8,0-1.3,0.1
		c-0.1,0-0.2,0-0.2-0.2c-0.1-1-0.1-1,0.9-1.1c1.5-0.1,2.9-0.2,4.3-0.5c0.1,0,0.2,0,0.3,0C59.5,67.1,58.8,68.5,57.9,69.9z"/>
	<path id="XMLID_295_" class="st3" d="M30.5,58.3c0.2-0.3,0.5-0.5,0.8-0.7c1.2-0.6,1.8-1.7,2.1-3c0.2-0.7,0.2-1.5,0.2-2.2
		c0-1.1,0-2.1,0.3-3.2c0.1-0.2,0.1-0.4,0.2-0.7c0-0.1,0.2-0.2,0.3-0.2c0.1,0,0.1,0.2,0.1,0.2c0,2.1,0.7,4,2.1,5.5
		c0.2,0.2,0.2,0.3,0,0.5c-0.2,0.2-0.2,0.3,0,0.5c0.2,0.2,0.4,0.5,0.7,0.7c0.2,0.2,0.2,0.3-0.1,0.4c-1.5,0.4-2.9,0.8-4.3,1.3
		C32.1,57.8,31.3,58,30.5,58.3z"/>
	<path id="XMLID_294_" class="st2" d="M50.5,70.1c0.9,0.1,1.7,0.1,2.5,0.1c0.3,0,0.3,0.1,0.3,0.3c0,0.9,0,0.9-0.9,0.9
		c-1.7,0-3.4-0.1-5-0.4c-0.1,0-0.1,0-0.2-0.1c1.1-1.1,2.2-2.2,3.2-3.5c-0.5,0-0.9-0.1-1.3-0.1c-0.4,0-0.9-0.1-1.3-0.1
		c-0.2,0-0.2-0.1-0.2-0.2c0,0,0,0,0-0.1c0-0.3,0-0.7,0.2-0.8c0.2-0.2,0.5,0,0.8,0c1.5,0.2,2.9,0.3,4.4,0.3c0.1,0,0.2-0.1,0.2,0.1
		c0,0.1-0.1,0.1-0.1,0.2c-0.8,1.1-1.6,2.2-2.5,3.2C50.7,69.8,50.6,69.9,50.5,70.1z"/>
	<path id="XMLID_291_" class="st2" d="M41,67.6c-0.3,0-0.7-0.1-1.1-0.2c-0.6-0.2-0.6-0.2-0.8,0.4c-0.1,0.3-0.2,0.6-0.3,0.9
		c-0.1,0.2-0.1,0.2-0.3,0.2c-0.5-0.2-1-0.4-1.5-0.6c-0.2-0.1-0.2-0.1-0.1-0.3c0.6-1.4,1.2-2.9,1.8-4.3c0.1-0.2,0.2-0.2,0.3-0.1
		c0.8,0.3,1.6,0.6,2.3,0.9c0.3,0.1,0.5,0.2,0.8,0.4c0.7,0.5,1,1.1,0.7,1.9C42.5,67.2,41.9,67.6,41,67.6z M41,65.7
		c0-0.3-0.3-0.6-0.8-0.7c-0.1,0-0.2,0-0.3,0.1c-0.1,0.3-0.2,0.6-0.3,0.9c-0.1,0.1,0,0.2,0.1,0.3c0.1,0,0.3,0.1,0.4,0.1
		C40.7,66.5,41,66.2,41,65.7z"/>
	<path id="XMLID_290_" class="st2" d="M45.7,48.7c0,0.3,0,0.6,0,0.9c0,1.8,0,3.6,0,5.3c0,0.2-0.1,0.3-0.3,0.3
		c-1.6-0.1-3-0.7-4.2-1.8c-0.1-0.1-0.2-0.2,0-0.3C42.7,51.7,44.2,50.2,45.7,48.7z"/>
	<path id="XMLID_289_" class="st2" d="M46.3,65.7c-0.1,0.8-0.3,1.4-0.4,2.1c-0.2,0.9-0.3,1.8-0.5,2.6c0,0.2-0.1,0.3-0.3,0.2
		c-0.5-0.1-1.1-0.2-1.6-0.3c-0.2,0-0.2-0.1-0.2-0.3c0.4-1.5,0.7-3,1.1-4.5c0-0.2,0.1-0.2,0.3-0.2c0.4,0.1,0.9,0.2,1.3,0.3
		C46.2,65.6,46.3,65.6,46.3,65.7z"/>
	<path id="XMLID_288_" class="st4" d="M15.4,52.1c-0.1-1.7-0.1-3.4,0.1-5.1c0.1-0.9,0.2-1.7,0.3-2.6c0.6-0.2,1.1-0.4,1.7-0.6
		c0,0.5-1.5,7.2-1.9,8.5C15.5,52.3,15.5,52.2,15.4,52.1z"/>
	<path id="XMLID_287_" class="st3" d="M39.5,62c1.4-0.4,2.8-0.6,4.2-0.9c0.4-0.1,0.8-0.1,1.3-0.2c0.2,0,0.3,0,0.3,0.2
		c0,0.8,0.1,1.6,0.3,2.4c0.1,0.3,0,0.3-0.2,0.2c-0.5-0.1-1.1-0.2-1.6-0.4c-0.2,0-0.3-0.2-0.4,0.1c0,0.1-0.1,0-0.1,0
		c-0.9-0.7-2-0.9-3-1.3C39.9,62.1,39.7,62.1,39.5,62z"/>
	<path id="XMLID_286_" class="st3" d="M28.2,40.6c0.9,0,1.8,0,2.7-0.2c0.3-0.1,0.7-0.2,1-0.3c0.2-0.1,0.3-0.1,0.3,0.1
		c0.2,0.7,0.4,1.5,0.6,2.2c0,0.2,0,0.2-0.1,0.3c-0.3,0.1-0.5,0.3-0.8,0.5c-0.2,0.1-0.3,0.1-0.4-0.1c-0.6-0.8-1.3-1.5-2.1-2
		C29,40.9,28.6,40.8,28.2,40.6z"/>
	<path id="XMLID_285_" class="st3" d="M48.9,50.5c-0.6,0.7-1.1,1.3-1.6,2c0-0.7,0-1.3,0-2c0-0.1,0.1-0.1,0.2-0.1
		C47.9,50.5,48.4,50.5,48.9,50.5z"/>
	<path id="XMLID_284_" class="st3" d="M28.5,59.5C28.5,59.5,28.5,59.5,28.5,59.5C28.5,59.5,28.5,59.5,28.5,59.5
		C28.5,59.5,28.5,59.5,28.5,59.5C28.5,59.5,28.5,59.5,28.5,59.5z"/>
	<path id="XMLID_283_" class="st0" d="M52,55.3c0.6-1.6,1.4-3,2.7-4.1c0.3-0.2,0.4-0.1,0.5,0.1c0.3,0.7,0.3,1.5,0.4,2.3
		c0,0.4,0,0.8,0,1.3c0,0.2,0,0.2-0.2,0.2C54.2,55.2,53.1,55.3,52,55.3z"/>
	<path id="XMLID_282_" class="st0" d="M55.3,56.8c-0.2,1-0.5,1.9-1.3,2.6c-0.4,0.4-0.8,0.6-1.4,0.6c-0.5,0-0.9-0.2-1-0.7
		c-0.3-0.7-0.2-1.3-0.1-2c0-0.2,0.1-0.2,0.2-0.2C52.9,57,54,56.9,55.3,56.8z"/>
	<path id="XMLID_279_" class="st0" d="M24.5,36c-1,0.9-1.6,2-1.9,3.2c-0.2,0-0.2-0.2-0.3-0.3c-0.4-0.6-0.9-0.8-1.6-0.7
		c-0.9,0.1-1.8,0.2-2.7,0.4c-1.4,0.2-2.8,0.4-4.3,0.3c-0.4,0-0.8-0.1-1.2-0.2C10.8,38,10,36,10.9,34.4c0.5-1,1.4-1.3,2.5-1.3
		c1.6,0.1,3.1,0.5,4.6,0.9C20.1,34.6,22.2,35.3,24.5,36z M14,36.8c-0.6-0.2-1.1-0.3-1.7-0.4c0.1,0.3,0.2,0.4,0.4,0.5
		c0.3,0.2,0.7,0.3,1.1,0.3c0.5,0.1,1,0,1.6-0.1C14.9,37.1,14.5,36.9,14,36.8z"/>
	<path id="XMLID_278_" class="st0" d="M64.8,65.8c0.5,0.5,0.9,1,1.3,1.5c0.1,0.1,0.1,0.2-0.1,0.2c-0.4,0.1-0.8,0.3-1.2,0.4
		c-0.1,0-0.2,0.1-0.2-0.1C64.7,67.2,64.8,66.5,64.8,65.8z"/>
	<path id="XMLID_277_" class="st0" d="M41,65.7c0,0.5-0.4,0.8-0.9,0.7c-0.1,0-0.3-0.1-0.4-0.1c-0.2,0-0.2-0.1-0.1-0.3
		c0.1-0.3,0.2-0.6,0.3-0.9c0-0.1,0.1-0.2,0.3-0.1C40.7,65.1,41,65.4,41,65.7z"/>
	<path id="XMLID_276_" class="st4" d="M13.8,37.2c-0.4,0-0.8-0.1-1.1-0.3c-0.2-0.1-0.4-0.3-0.4-0.5c0.6,0.1,1.2,0.2,1.7,0.4
		C13.9,37,13.9,37.1,13.8,37.2z"/>
	<path id="XMLID_275_" class="st3" d="M13.8,37.2c0.1-0.1,0.1-0.3,0.2-0.4c0.5,0.1,0.9,0.2,1.4,0.3C14.9,37.3,14.3,37.3,13.8,37.2z"
		/>
</g>
</svg>
